<svg xmlns="http://www.w3.org/2000/svg" width="17" height="17" viewBox="-1 -1 24 22"><path id="Icon_feather-github" data-name="Icon feather-github" d="M9.658,18.606C4.9,20.033,4.9,16.228,3,15.753M16.316,21.46V17.779a3.205,3.205,0,0,0-.894-2.483c2.987-.333,6.126-1.465,6.126-6.658a5.174,5.174,0,0,0-1.426-3.566,4.822,4.822,0,0,0-.086-3.587s-1.122-.333-3.719,1.408a12.727,12.727,0,0,0-6.658,0c-2.6-1.741-3.719-1.408-3.719-1.408a4.822,4.822,0,0,0-.086,3.586,5.174,5.174,0,0,0-1.427,3.6c0,5.155,3.139,6.287,6.126,6.658a3.205,3.205,0,0,0-.894,2.454V21.46" transform="translate(-2.394 -0.936)" fill="none" stroke="currentColor" stroke-linecap="round" stroke-linejoin="round" stroke-width="2"/></svg>