<svg class="instagram" xmlns="http://www.w3.org/2000/svg" width="17" height="17" viewBox="-1 -1 23 23">
  <g id="Icon_feather-instagram" data-name="Icon feather-instagram" transform="translate(-2.5 -2.5)">
    <path id="Path_50" data-name="Path 50" d="M8,3H18a5,5,0,0,1,5,5V18a5,5,0,0,1-5,5H8a5,5,0,0,1-5-5V8A5,5,0,0,1,8,3Z"
      fill="none" stroke="currentColor" stroke-linecap="round" stroke-linejoin="round" stroke-width="2" />
    <path id="Path_51" data-name="Path 51" d="M20.022,15.348a4,4,0,1,1-3.37-3.37,4,4,0,0,1,3.37,3.37Z"
      transform="translate(-3.022 -2.978)" fill="none" stroke="currentColor" stroke-linecap="round"
      stroke-linejoin="round" stroke-width="2" />
    <path id="Path_52" data-name="Path 52" d="M26.25,9.75h0" transform="translate(-7.75 -2.25)" fill="none"
      stroke="currentColor" stroke-linecap="round" stroke-linejoin="round" stroke-width="2" />
  </g>
</svg>