<svg xmlns="http://www.w3.org/2000/svg" width="17" height="17" viewBox="-1 -1 23 23"><g id="Icon_feather-linkedin" data-name="Icon feather-linkedin" transform="translate(-2.5 -2.5)"><path id="Path_53" data-name="Path 53" d="M21,12a6,6,0,0,1,6,6v7H23V18a2,2,0,0,0-4,0v7H15V18a6,6,0,0,1,6-6Z" transform="translate(-4 -3)" fill="none" stroke="currentColor" stroke-linecap="round" stroke-linejoin="round" stroke-width="2"/><path id="Path_54" data-name="Path 54" d="M3,13.5H7v12H3Z" transform="translate(0 -3.5)" fill="none" stroke="currentColor" stroke-linecap="round" stroke-linejoin="round" stroke-width="2"/><path id="Path_55" data-name="Path 55" d="M7,5A2,2,0,1,1,5,3,2,2,0,0,1,7,5Z" transform="translate(0 0)" fill="none" stroke="currentColor" stroke-linecap="round" stroke-linejoin="round" stroke-width="2"/></g></svg>